<?xml version="1.0" encoding="utf-8"?>
<!-- Generator: Adobe Illustrator 20.1.0, SVG Export Plug-In . SVG Version: 6.00 Build 0)  -->
<svg version="1.1" xmlns="http://www.w3.org/2000/svg" xmlns:xlink="http://www.w3.org/1999/xlink" x="0px" y="0px" width="1080px"
	 height="179.8px" viewBox="0 0 1080 179.8" style="enable-background:new 0 0 1080 179.8;" xml:space="preserve">
<style type="text/css">
	.st0{clip-path:url(#SVGID_2_);}
	.st1{clip-path:url(#SVGID_2_);fill:#E04632;}
	.st2{clip-path:url(#SVGID_6_);fill:#FC4D30;}
	.st3{clip-path:url(#SVGID_6_);fill:#BF433A;}
	.st4{clip-path:url(#SVGID_8_);fill:#DDCA78;}
	.st5{clip-path:url(#SVGID_8_);fill:#FFDB45;}
	.st6{clip-path:url(#SVGID_10_);fill:#DDCA78;}
	.st7{clip-path:url(#SVGID_2_);fill:#FFDB45;}
	.st8{clip-path:url(#SVGID_12_);fill:#FFDB45;}
	.st9{clip-path:url(#SVGID_14_);fill:#DDCA78;}
	.st10{clip-path:url(#SVGID_16_);fill:#DDCA78;}
	.st11{clip-path:url(#SVGID_18_);fill:#66645A;}
	.st12{clip-path:url(#SVGID_18_);fill:none;stroke:#66645A;stroke-width:8;stroke-linecap:round;stroke-linejoin:round;}
	.st13{clip-path:url(#SVGID_20_);fill:#F4E49F;}
	.st14{fill:#FFFFFF;}
</style>
<g id="Layer_1">
	<g>
		<g>
			<defs>
				<rect id="SVGID_1_" x="831.7" y="15.1" width="211.4" height="303.3"/>
			</defs>
			<clipPath id="SVGID_2_">
				<use xlink:href="#SVGID_1_"  style="overflow:visible;"/>
			</clipPath>
			<g class="st0">
				<defs>
					<rect id="SVGID_3_" x="831.7" y="16.1" width="211.4" height="302.3"/>
				</defs>
				<clipPath id="SVGID_4_">
					<use xlink:href="#SVGID_3_"  style="overflow:visible;"/>
				</clipPath>
			</g>
			<polygon class="st1" points="907.8,110.2 973.5,116.5 985.3,109.7 920.1,103.3 905.3,110.4 			"/>
			<g class="st0">
				<defs>
					<rect id="SVGID_5_" x="831.7" y="15.1" width="211.4" height="303.3"/>
				</defs>
				<clipPath id="SVGID_6_">
					<use xlink:href="#SVGID_5_"  style="overflow:visible;"/>
				</clipPath>
				<path class="st2" d="M974.7,118.3c2.9,23.2,2.4,19.2,10.2,81.5v5.5c-3.9-0.9-6.9-1.5-8.4-1.8c-14.6-2.9-67.9-10-81-12.5
					c-0.7-0.1-3.1,0.2-4.3-1.3c-1.3-1.6-0.3-4.8-0.3-4.8c8.3-52.8,12-70.3,12-70.3c-0.1-0.4,0.8-2.9,0.8-2.9c1.5-2,3.2-1.9,4.3-1.8
					c8.6,0.8,48.6,4.8,48.6,4.8C967.4,115.5,974.3,114.9,974.7,118.3"/>
				<path class="st3" d="M973.1,116.2c3.7-2.5,8.3-4.9,8.3-4.9s2.6-2,4-1.6c1.5,0.4,2.7,2.5,3.1,4.2l16.9,72.1l-20.6,16.9
					L973.1,116.2z"/>
			</g>
			<g class="st0">
				<defs>
					<rect id="SVGID_7_" x="831.7" y="15.1" width="211.4" height="303.3"/>
				</defs>
				<clipPath id="SVGID_8_">
					<use xlink:href="#SVGID_7_"  style="overflow:visible;"/>
				</clipPath>
			</g>
			<g class="st0">
				<defs>
					<rect id="SVGID_9_" x="831.7" y="15.1" width="211.4" height="303.3"/>
				</defs>
				<clipPath id="SVGID_10_">
					<use xlink:href="#SVGID_9_"  style="overflow:visible;"/>
				</clipPath>
			</g>
			<g class="st0">
				<defs>
					<rect id="SVGID_11_" x="831.7" y="15.1" width="211.4" height="303.3"/>
				</defs>
				<clipPath id="SVGID_12_">
					<use xlink:href="#SVGID_11_"  style="overflow:visible;"/>
				</clipPath>
				<path class="st8" d="M969,101.2h-44c-7.1,0-12.8-5.8-12.8-12.8V55.1c0-7.1,5.8-12.8,12.8-12.8h44c7.1,0,12.8,5.8,12.8,12.8v33.2
					C981.8,95.4,976,101.2,969,101.2"/>
				<path class="st8" d="M958.2,48.2h-22.2c-3.3,0-5.9-2.7-5.9-5.9v-6.9c0-3.3,2.7-5.9,5.9-5.9h22.2c3.3,0,5.9,2.7,5.9,5.9v6.9
					C964.1,45.5,961.4,48.2,958.2,48.2"/>
				<path class="st8" d="M959.5,113.4l-28.3-2.1c-4.6-0.3-8.1-4.4-7.8-9l0.9-12.5c0.3-4.6,4.4-8.1,9-7.8l28.3,2.1
					c4.6,0.3,8.1,4.4,7.8,9l-0.9,12.5C968.1,110.3,964.1,113.8,959.5,113.4"/>
				<path class="st8" d="M995,209.2l7.1,2l-1.7,3.4c-0.9,2.9-0.8,4.3-0.7,7.2c1.1,3.8,1.4,4.4,3.4,5.7c2.7,1.8,6.1,0.2,7.4-0.5
					c5.4-2.7,6.4-9,6.4-9.4c0.6-4.6-1.5-8-2.4-9.4c-2.7-4.2-6.6-5.9-8-6.4l1-4.4c1.5-1.1,4.2-2.5,4.9-5.4c1.7-6.5,1.9-6.2,2-16.3
					c0.1-11.7,0-12.7-0.2-14c-0.7-5.3-2-7.9-4.3-13.7c-1.3-3.2-2.8-6.4-5.9-12.8c-2.6-5.4-3.9-8.1-4.9-9.4c-0.8-1-8.1-10-14.8-7.9
					c-2.5,0.8-4,2.7-4.4,3.5c-2,3.1-1.3,6.5-0.5,11.9c1.8,11.3,0.6,8.4,2,15.3c1.5,7.9,3,10.7,4.9,20l-2.9,20l4,6.4
					c-2.2,0.1-5.2,0.6-7.9,2.5c-7.6,5.4-8.3,18.6-3,26.2c0.6,0.8,4.8,6.8,9.9,5.9c2.5-0.4,5.7-2.6,5.9-5.9c0.3-3.5-2.7-5.8-3-5.9
					l-4.9-4l3-4.4H995z"/>
				<path class="st8" d="M883.8,117.5l19.8-5.9l-7.4,40c-3.3,0-22.7-0.1-32.1-13.6c-1.3-1.8-2.5-4.1-3.5-6.9"/>
				<path class="st8" d="M871.2,133.6l-24.8-8c-3.1-1-4.8-4.4-3.8-7.5l6-18.5c1-3.1,4.4-4.8,7.5-3.8l24.8,8c3.1,1,4.8,4.4,3.8,7.5
					l-6,18.5C877.7,132.9,874.3,134.6,871.2,133.6"/>
			</g>
			<g class="st0">
				<defs>
					<rect id="SVGID_13_" x="831.7" y="15.1" width="211.4" height="303.3"/>
				</defs>
				<clipPath id="SVGID_14_">
					<use xlink:href="#SVGID_13_"  style="overflow:visible;"/>
				</clipPath>
				<path class="st9" d="M1005.3,151.4c2.3,9.4,3.7,13.6,3,29.4c-0.1,2.7-1,5.2-1.7,7.4l4.4,2.5c1.1-7.7,2-20.8-2.5-35.8
					c-2.6-8.9-6.4-15.9-9.6-21L1005.3,151.4z"/>
			</g>
			<g class="st0">
				<defs>
					<rect id="SVGID_15_" x="831.7" y="15.1" width="211.4" height="303.3"/>
				</defs>
				<clipPath id="SVGID_16_">
					<use xlink:href="#SVGID_15_"  style="overflow:visible;"/>
				</clipPath>
				<path class="st10" d="M889.7,153.4c2.6-0.3,5.1-1.1,6.4-1.7l4.4-23.7l-5.9,6.7c-5.3-9.7-7.3-11.4-8.2-11.1
					c-1,0.4,0.3,3.5-1.2,7.4c-1.8,4.7-6.6,8.2-11.4,8.9c-5.6,0.8-10.7-2.6-9.9-1.7c7.8,8.7,6.9,9.6,16.3,13.6
					C883.9,153.2,886.8,153.7,889.7,153.4"/>
				<path class="st10" d="M855.9,95.9c-2,2-5.1,6.3-6.9,10.9c-3.6,9.1-1.1,16.8-0.2,19.8l15.7,5.2c-0.6-1.4-1.8-2.9-2.1-5.4
					c-0.3-2.4-0.3-5.2,1.2-10.9c0.9-3.5,2.9-9.7,5.4-15.1L855.9,95.9z"/>
				<path class="st10" d="M950.5,106.4c-0.1-1.7-3.8-3-7.2-3.8l13.7,0.3l10.3-1.8l-1,6.9c0,0-1.1,3.2-4.7,3.5
					c-8.9,0.6-14.2-0.7-16.5-1C943.8,110.3,950.6,108.5,950.5,106.4"/>
				<path class="st10" d="M969.5,67.1c-2.2,7.8-0.4,16.2-7.7,24.5c-2.4,2.7-5.4,4.1-7.6,4.8c3.4,0.3,8.8,0.3,14.8-1.8
					c2.7-1,5-2.2,6.8-3.3V72.7v-6.9c-0.6,0.7-1.6,1.5-2.8,1.8C971.2,68,969.8,66.3,969.5,67.1"/>
				<path class="st10" d="M956.8,34.7c1.6-0.5,3-0.7,3.8-0.8c-0.1,2.5-0.1,5.1-0.2,7.6c-2.4,0.1-4.8,0.1-7.4,0
					c-4-0.1-7.8-0.4-11.4-0.8c2.3-0.7,4.2-1.3,5.4-1.8C951.2,37.1,953,35.8,956.8,34.7"/>
			</g>
			<g class="st0">
				<defs>
					<rect id="SVGID_17_" x="831.7" y="15.1" width="211.4" height="303.3"/>
				</defs>
				<clipPath id="SVGID_18_">
					<use xlink:href="#SVGID_17_"  style="overflow:visible;"/>
				</clipPath>
				<path class="st11" d="M940.3,71.1c0,2.3-1.9,4.1-4.1,4.1s-4.1-1.9-4.1-4.1s1.9-4.1,4.1-4.1S940.3,68.8,940.3,71.1"/>
				<path class="st11" d="M962.2,71.3c0,2.3-1.9,4.1-4.1,4.1s-4.1-1.9-4.1-4.1c0-2.3,1.9-4.1,4.1-4.1S962.2,69,962.2,71.3"/>
				<path class="st12" d="M937.2,84.5c0.8,0.7,4.9,4.2,10.9,3.7c4.3-0.4,7.1-2.6,8.2-3.5"/>
			</g>
			<g class="st0">
				<defs>
					<rect id="SVGID_19_" x="831.7" y="15.1" width="211.4" height="303.3"/>
				</defs>
				<clipPath id="SVGID_20_">
					<use xlink:href="#SVGID_19_"  style="overflow:visible;"/>
				</clipPath>
				<path class="st13" d="M921.8,48.9c-1.9,1-3,2.4-3.5,3c-1.4,2-1.7,4.1-1.7,4.9c2.7-1.2,6.7-2.7,11.9-4c9.2-2.2,14.8-1.5,14.8-2.5
					c0.1-1.4-11.8-2.4-16.8-2.5C925.6,47.9,923.8,48,921.8,48.9"/>
				<path class="st13" d="M992,157.6l1,9.9v19c-0.2-0.2-1.2-1.1-2.6-1.2c-1.9-0.2-3.1,1.1-3.3,1.2l3-19.8c-0.4-3-0.8-5.9-1.2-8.9
					L992,157.6z"/>
			</g>
		</g>
	</g>
</g>
<g id="Layer_3">
	<path class="st14" d="M819.2,112.9c-4.9,2.5-12.1,5-21.5,4.6c-6.4-0.3-12.7-1.9-18.7-4.3V30.8c0-6.6-5.8-12-12.8-12H56.9
		c-7,0-12.9,5.4-12.9,12v109.9c0,6.6,5.9,12.1,12.9,12.1h709.3c7,0,12.8-5.5,12.8-12.1v-10.3C800,130.4,813.1,119.4,819.2,112.9z"/>
</g>
</svg>
